<?xml version="1.0" encoding="UTF-8"?> <svg xmlns="http://www.w3.org/2000/svg" width="836" height="506" viewBox="0 0 836 506" fill="none"><path d="M205.824 234.429H607.524" stroke="white" stroke-width="4" stroke-miterlimit="10" stroke-linecap="round"></path><path d="M61.4242 316.729C67.4242 316.729 73.1242 317.929 78.3242 320.329C83.5242 322.729 88.1242 325.929 91.9242 329.929C95.7242 333.929 98.7242 338.629 100.924 343.929C103.124 349.229 104.224 354.829 104.224 360.629C104.224 366.429 103.424 369.929 101.824 374.429C100.224 378.929 98.0242 383.029 95.1242 386.729C92.2242 390.429 88.7242 393.729 84.7242 396.529C80.7242 399.329 76.3242 401.429 71.5242 402.829L101.624 453.329C101.824 453.629 102.024 453.929 102.124 454.229C102.324 454.529 102.324 454.829 102.324 454.929C102.324 455.029 101.724 455.329 100.424 455.329H85.8242C84.9242 455.329 84.1242 455.029 83.4242 454.529C82.7242 454.029 82.1242 453.229 81.5242 452.329L52.3242 403.929H19.2242V452.329C19.2242 454.329 18.2242 455.329 16.2242 455.329H6.32422C4.22422 455.329 3.12421 454.329 3.12421 452.329V391.229C3.12421 390.329 3.42422 389.529 4.02422 388.929C4.62422 388.329 5.42422 388.029 6.32422 388.029H42.7242L1.42422 319.229C1.02422 318.629 0.824219 318.129 0.824219 317.729C0.824219 317.329 1.02422 317.029 1.52422 316.929C1.92422 316.729 2.42422 316.629 2.92422 316.629H61.2242L61.4242 316.729ZM29.6242 332.629L62.7242 388.129C66.1242 387.929 69.4242 386.929 72.5242 385.229C75.6242 383.529 78.3242 381.429 80.6242 378.929C82.9242 376.429 84.8242 373.529 86.1242 370.329C87.4242 367.129 88.1242 363.829 88.1242 360.429C88.1242 357.029 87.4242 353.529 86.0242 350.229C84.6242 346.929 82.7242 343.929 80.3242 341.329C77.9242 338.729 75.0242 336.629 71.8242 335.029C68.6242 333.429 65.1242 332.629 61.3242 332.629H29.5242H29.6242Z" fill="white"></path><path d="M120.424 454.329C117.124 454.329 115.524 453.229 115.524 451.029C115.524 448.829 115.524 449.029 115.624 448.629C115.624 448.229 115.824 448.029 115.924 447.829L170.524 323.629C170.924 322.929 171.324 322.129 172.024 321.329C172.624 320.529 174.024 320.029 176.324 320.029H177.224C178.424 320.029 179.424 320.229 180.124 320.529C180.824 320.829 181.324 321.229 181.724 321.629C182.124 322.029 182.324 322.529 182.424 323.029C182.524 323.529 182.724 323.929 182.924 324.129C187.324 334.429 191.224 343.229 194.424 350.529C197.624 357.829 200.624 364.329 203.324 369.929C206.024 375.629 208.524 380.929 210.824 385.829C213.224 390.729 215.624 396.029 218.324 401.729C220.924 407.429 223.824 413.929 227.024 421.129C230.224 428.429 233.924 437.229 238.124 447.629H238.024C238.024 447.529 238.324 448.829 238.324 448.829C238.324 449.229 238.524 449.629 238.624 450.029C238.624 450.429 238.724 450.629 238.724 450.829C238.724 453.029 237.124 454.129 233.924 454.129H120.524L120.424 454.329ZM147.924 430.929H206.024L176.424 363.029L147.924 430.929Z" fill="#DA291C"></path><path d="M352.625 328.329C352.625 327.029 353.025 325.929 353.925 325.029C354.725 324.129 355.925 323.729 357.325 323.729H371.025C372.325 323.729 373.525 324.129 374.625 324.929C375.725 325.729 376.225 326.929 376.225 328.429V449.829C376.225 452.929 374.525 454.529 371.025 454.529H357.325C354.225 454.529 352.625 452.929 352.625 449.829V397.029H283.925V449.829C283.925 452.929 282.125 454.529 278.625 454.529H264.925C261.825 454.529 260.225 452.929 260.225 449.829V328.429C260.225 327.129 260.625 326.029 261.525 325.129C262.425 324.229 263.525 323.829 264.825 323.829H278.825C280.225 323.829 281.425 324.229 282.425 325.129C283.425 326.029 283.925 327.129 283.925 328.429V373.429H352.625V328.429V328.329Z" fill="white"></path><path d="M497.725 376.929C498.925 376.929 500.025 377.329 500.925 378.229C501.825 379.129 502.225 380.329 502.225 381.829V395.829C502.225 397.129 501.825 398.229 501.025 399.129C500.225 400.029 499.125 400.429 497.725 400.429H434.325V430.529H502.225C503.425 430.529 504.525 431.029 505.525 431.929C506.425 432.829 506.925 434.129 506.925 435.629V449.629C506.925 450.929 506.525 452.029 505.625 452.929C504.825 453.829 503.625 454.229 502.225 454.229H414.925C412.425 454.229 411.225 452.629 411.225 449.529V328.129C411.225 325.029 412.825 323.429 415.925 323.429H499.325C500.725 323.429 501.825 323.829 502.625 324.729C503.425 325.629 503.825 326.729 503.825 328.029V342.029C503.825 343.529 503.425 344.729 502.525 345.629C501.625 346.529 500.525 346.929 499.325 346.929H434.325V376.629H497.725V376.929Z" fill="white"></path><path d="M620.024 376.929C621.224 376.929 622.324 377.329 623.224 378.229C624.124 379.129 624.524 380.329 624.524 381.829V395.829C624.524 397.129 624.124 398.229 623.324 399.129C622.524 400.029 621.424 400.429 620.024 400.429H556.624V430.529H624.524C625.724 430.529 626.824 431.029 627.824 431.929C628.724 432.829 629.224 434.129 629.224 435.629V449.629C629.224 450.929 628.824 452.029 627.924 452.929C627.124 453.829 625.924 454.229 624.524 454.229H537.224C534.724 454.229 533.524 452.629 533.524 449.529V328.129C533.524 325.029 535.124 323.429 538.224 323.429H621.624C623.024 323.429 624.124 323.829 624.924 324.729C625.724 325.629 626.124 326.729 626.124 328.029V342.029C626.124 343.529 625.724 344.729 624.824 345.629C623.924 346.529 622.824 346.929 621.624 346.929H556.624V376.629H620.024V376.929Z" fill="white"></path><path d="M719.824 454.329C716.024 454.329 714.124 452.929 714.124 450.029C714.124 447.129 714.324 447.529 714.724 446.529C715.124 445.529 715.424 444.729 715.624 444.329L726.824 417.429L703.224 359.329L666.824 449.529C666.124 451.029 665.224 452.229 664.124 453.029C663.024 453.829 661.524 454.329 659.824 454.329H648.524C644.724 454.329 642.824 452.929 642.824 450.029C642.824 447.129 643.024 447.529 643.424 446.529C643.824 445.529 644.124 444.729 644.324 444.329L692.424 328.429C693.124 326.629 693.924 325.329 694.724 324.529C695.524 323.729 697.124 323.329 699.424 323.329H707.124C708.724 323.329 710.124 323.629 711.224 324.329C712.424 325.029 713.424 326.429 714.324 328.529L738.924 388.229L763.824 328.429C764.524 326.629 765.324 325.329 766.124 324.529C766.924 323.729 768.524 323.329 770.824 323.329H778.524C780.124 323.329 781.524 323.629 782.624 324.329C783.824 325.029 784.824 326.429 785.724 328.529L834.324 445.929C834.524 446.129 834.724 446.729 834.924 447.729C835.124 448.729 835.224 449.529 835.224 449.929C835.224 452.829 833.324 454.329 829.624 454.329H818.424C814.924 454.329 812.624 452.729 811.324 449.629L774.724 359.329L751.124 417.629L762.824 445.829C763.024 446.029 763.224 446.629 763.424 447.629C763.624 448.629 763.724 449.429 763.724 449.829C763.724 452.729 761.824 454.229 758.124 454.229H719.924L719.824 454.329Z" fill="white"></path><path d="M205.824 260.029H607.524" stroke="white" stroke-width="4" stroke-miterlimit="10" stroke-linecap="round"></path><path d="M89.877 260.757H108.837V265.989H83.637V232.389H108.165V237.621H89.877V246.357H106.101V251.493H89.877V260.757ZM126.209 266.469C120.977 266.469 115.745 264.837 112.961 262.437L115.121 257.589C117.809 259.749 122.081 261.285 126.209 261.285C131.441 261.285 133.649 259.413 133.649 256.917C133.649 249.669 113.681 254.421 113.681 241.941C113.681 236.517 118.001 231.909 127.217 231.909C131.249 231.909 135.473 232.965 138.401 234.885L136.433 239.733C133.409 237.957 130.097 237.093 127.169 237.093C121.985 237.093 119.873 239.109 119.873 241.653C119.873 248.805 139.793 244.149 139.793 256.485C139.793 261.861 135.425 266.469 126.209 266.469ZM152.328 265.989V237.669H141.192V232.389H169.704V237.669H158.568V265.989H152.328ZM174.184 266.325C172.024 266.325 170.248 264.645 170.248 262.341C170.248 259.941 172.024 258.357 174.184 258.357C176.344 258.357 178.12 259.941 178.12 262.341C178.12 264.645 176.344 266.325 174.184 266.325Z" fill="white"></path><path d="M644.775 260.709H660.615V265.989H635.847V261.813L649.191 249.141C652.455 246.021 653.031 244.053 653.031 242.181C653.031 239.109 650.919 237.333 646.791 237.333C643.527 237.333 640.791 238.437 638.919 240.837L634.551 237.477C637.143 233.973 641.799 231.909 647.319 231.909C654.615 231.909 659.319 235.605 659.319 241.557C659.319 244.821 658.407 247.797 653.751 252.165L644.775 260.709ZM678.092 266.469C670.124 266.469 664.076 260.229 664.076 249.189C664.076 238.149 670.124 231.909 678.092 231.909C686.108 231.909 692.156 238.149 692.156 249.189C692.156 260.229 686.108 266.469 678.092 266.469ZM678.092 261.045C682.7 261.045 685.868 257.301 685.868 249.189C685.868 241.077 682.7 237.333 678.092 237.333C673.532 237.333 670.364 241.077 670.364 249.189C670.364 257.301 673.532 261.045 678.092 261.045ZM710.389 266.469C702.421 266.469 696.373 260.229 696.373 249.189C696.373 238.149 702.421 231.909 710.389 231.909C718.405 231.909 724.453 238.149 724.453 249.189C724.453 260.229 718.405 266.469 710.389 266.469ZM710.389 261.045C714.997 261.045 718.165 257.301 718.165 249.189C718.165 241.077 714.997 237.333 710.389 237.333C705.829 237.333 702.661 241.077 702.661 249.189C702.661 257.301 705.829 261.045 710.389 261.045ZM739.182 245.397C749.118 245.397 753.102 249.717 753.102 255.669C753.102 261.573 748.83 266.469 739.806 266.469C735.054 266.469 730.254 265.029 727.182 262.581L729.822 257.733C732.27 259.749 735.918 261.045 739.71 261.045C744.174 261.045 746.814 259.077 746.814 255.909C746.814 252.693 744.75 250.677 737.79 250.677H729.678L731.406 232.389H751.134V237.621H736.686L735.966 245.397H739.182Z" fill="white"></path><path d="M403.624 128.129C403.624 131.829 403.424 147.029 403.324 152.829H410.024C410.024 147.029 410.024 131.829 409.924 128.229C412.824 126.829 414.824 124.529 416.024 121.929C418.224 117.129 418.124 112.129 417.524 106.929C417.124 102.729 414.724 78.1294 414.724 78.1294C414.724 77.6294 413.824 77.6294 413.824 78.1294L413.524 106.929C413.524 108.429 411.524 108.429 411.524 106.929L409.824 78.0294C409.824 77.5294 408.924 77.5294 408.924 78.0294L407.824 106.929C407.824 107.729 407.324 108.129 406.724 108.129C406.224 108.129 405.724 107.729 405.724 106.929L404.924 78.0294C404.924 77.5294 404.024 77.5294 404.024 78.0294L402.024 106.829C402.024 108.329 400.024 108.329 400.024 106.829V77.9294C400.024 77.4294 399.124 77.4294 399.124 77.9294C399.124 77.9294 396.524 102.529 396.024 106.729C395.424 111.829 395.224 116.929 397.424 121.729C398.624 124.329 400.524 126.629 403.424 128.029L403.624 128.129Z" fill="#DA291C"></path><path d="M374.424 134.829C374.424 137.129 374.424 149.929 374.424 152.829H380.124C380.024 149.829 379.924 137.029 379.824 134.729C379.624 129.629 379.524 96.4294 379.524 95.0294C379.524 93.2294 376.824 91.7294 374.624 94.6294C371.424 98.8294 367.424 110.629 367.024 119.629C366.724 126.729 368.724 133.429 374.424 134.829Z" fill="#DA291C"></path><path d="M441.524 127.029C442.124 127.429 442.124 127.829 442.124 128.129C442.324 130.029 442.124 145.829 441.824 152.729H447.124C447.124 144.929 447.024 128.829 447.124 128.129C447.124 127.829 447.124 127.429 447.824 127.029C452.324 124.029 455.524 119.129 455.524 110.429C455.524 100.629 449.924 92.6294 445.024 92.5294C440.124 92.5294 434.224 100.429 434.124 110.229C434.124 118.929 437.124 123.929 441.524 127.029Z" fill="#DA291C"></path><path d="M241.124 173.029C241.124 105.129 296.224 50.0294 364.124 50.0294M572.224 173.029C572.224 105.129 517.124 50.0294 449.224 50.0294" stroke="white" stroke-width="6" stroke-miterlimit="10" stroke-linecap="round"></path><path d="M316.624 162.929L319.624 169.029C320.924 171.629 323.324 173.329 326.124 173.729L332.824 174.729L327.924 179.429C325.924 181.429 324.924 184.329 325.424 187.129L326.524 193.829L320.524 190.629C318.024 189.329 315.024 189.329 312.424 190.629L306.424 193.829L307.524 187.129C308.024 184.329 307.124 181.429 305.024 179.429L300.124 174.729L306.824 173.729C309.624 173.329 312.124 171.529 313.324 169.029L316.324 162.929H316.624Z" fill="white"></path><path d="M363.924 162.929L366.924 169.029C368.224 171.629 370.624 173.329 373.424 173.729L380.124 174.729L375.224 179.429C373.224 181.429 372.224 184.329 372.724 187.129L373.824 193.829L367.824 190.629C365.324 189.329 362.324 189.329 359.724 190.629L353.724 193.829L354.824 187.129C355.324 184.329 354.424 181.429 352.324 179.429L347.424 174.729L354.124 173.729C356.924 173.329 359.424 171.529 360.624 169.029L363.624 162.929H363.924Z" fill="white"></path><path d="M411.224 162.929L414.224 169.029C415.524 171.629 417.924 173.329 420.724 173.729L427.424 174.729L422.524 179.429C420.524 181.429 419.524 184.329 420.024 187.129L421.124 193.829L415.124 190.629C412.624 189.329 409.624 189.329 407.024 190.629L401.024 193.829L402.124 187.129C402.624 184.329 401.724 181.429 399.624 179.429L394.724 174.729L401.424 173.729C404.224 173.329 406.724 171.529 407.924 169.029L410.924 162.929H411.224Z" fill="white"></path><path d="M458.524 162.929L461.524 169.029C462.824 171.629 465.224 173.329 468.024 173.729L474.724 174.729L469.824 179.429C467.824 181.429 466.824 184.329 467.324 187.129L468.424 193.829L462.424 190.629C459.924 189.329 456.924 189.329 454.324 190.629L448.324 193.829L449.424 187.129C449.924 184.329 449.024 181.429 446.924 179.429L442.024 174.729L448.724 173.729C451.524 173.329 454.024 171.529 455.224 169.029L458.224 162.929H458.524Z" fill="white"></path><path d="M505.824 162.929L508.824 169.029C510.124 171.629 512.524 173.329 515.324 173.729L522.024 174.729L517.124 179.429C515.124 181.429 514.124 184.329 514.624 187.129L515.724 193.829L509.724 190.629C507.224 189.329 504.224 189.329 501.624 190.629L495.624 193.829L496.724 187.129C497.224 184.329 496.324 181.429 494.224 179.429L489.324 174.729L496.024 173.729C498.824 173.329 501.324 171.529 502.524 169.029L505.524 162.929H505.824Z" fill="white"></path><path d="M407.123 50.3294C420.986 50.3294 432.223 39.0918 432.223 25.2294C432.223 11.3671 420.986 0.12944 407.123 0.12944C393.261 0.12944 382.023 11.3671 382.023 25.2294C382.023 39.0918 393.261 50.3294 407.123 50.3294Z" fill="#DA291C"></path></svg> 